# AST/ASF file generated using VICON BodyLanguage
# -----------------------------------------------
:version 1.10
:name VICON
:units
  mass 1.0
  length 0.45
  angle deg
:documentation
   .ast/.asf automatically generated from VICON data using
   VICON BodyBuilder and BodyLanguage model FoxedUp or BRILLIANT.MOD
:root
   order TX TY TZ RX RY RZ
   axis XYZ
   position 0 0 0  
   orientation 0 0 0 
:bonedata
  begin
     id 1 
     name lhipjoint
     direction 0.646821 -0.743844 0.168282 
     length 2.62284 
     axis 0 0 0  XYZ
  end
  begin
     id 2 
     name lfemur
     direction 0.34202 -0.939693 0  
     length 7.79098  
     axis 0 0 20  XYZ
    dof rx ry rz
    limits (-160.0 20.0)
           (-70.0 70.0)
           (-60.0 70.0)
  end
  begin
     id 3 
     name ltibia
     direction 0.34202 -0.939693 0   
     length 8.1986   
     axis 0 0 20   XYZ
    dof rx
    limits (-10.0 170.0)
  end
  begin
     id 4 
     name lfoot
     direction 0.0766762 -0.210666 0.974546   
     length 1.95107   
     axis -90 7.62852e-016 20   XYZ
    dof rx rz
    limits (-45.0 90.0)
           (-70.0 20.0)
  end
  begin
     id 5 
     name ltoes
     direction 1.53582e-011 -4.21539e-011 1   
     length 0.983514   
     axis -90 7.62852e-016 20   XYZ
    dof rx
    limits (-90.0 20.0)
  end
  begin
     id 6 
     name rhipjoint
     direction -0.658967 -0.733632 0.165972   
     length 2.65935  
     axis 0 0 0  XYZ 
  end
  begin
     id 7 
     name rfemur
     direction -0.34202 -0.939693 0   
     length 7.69405   
     axis 0 0 -20   XYZ
    dof rx ry rz
    limits (-160.0 20.0)
           (-70.0 70.0)
           (-70.0 60.0)
  end
  begin
     id 8 
     name rtibia
     direction -0.34202 -0.939693 0   
     length 8.15138   
     axis 0 0 -20   XYZ
    dof rx
    limits (-10.0 170.0)
 end
 begin
     id 9 
     name rfoot
     direction -0.0806473 -0.221577 0.971802   
     length 2.09362  
     axis -90 -7.62852e-016 -20   XYZ
    dof rx rz
    limits (-45.0 90.0)
           (-20.0 70.0)
  end
  begin
     id 10 
     name rtoes
     direction -1.53524e-011 -4.2203e-011 1   
     length 1.05224   
     axis -90 -7.62852e-016 -20   XYZ
    dof rx
    limits (-90.0 20.0)
  end
  begin
     id 11 
     name lowerback
     direction -0.0484271 0.997202 0.0569433   
     length 1.86801   
     axis 0 0 0   XYZ
    dof rx ry rz
    limits (-20.0 45.0)
           (-30.0 30.0)
           (-30.0 30.0)
  end
  begin
     id 12 
     name upperback
     direction 0.0148864 0.998882 0.0448682   
     length 1.86634   
     axis 0 0 0   XYZ
    dof rx ry rz
    limits (-20.0 45.0)
           (-30.0 30.0)
           (-30.0 30.0)
  end
  begin
     id 13 
     name thorax
     direction 0.0368776 0.99918 0.0167067   
     length 1.87554   
     axis 0 0 0   XYZ
    dof rx ry rz
    limits (-20.0 45.0)
           (-30.0 30.0)
           (-30.0 30.0)
  end
  begin
     id 14 
     name lowerneck
     direction -0.0200531 0.999751 0.00976032   
     length 1.82429   
     axis 0 0 0   XYZ
    dof rx ry rz
    limits (-20.0 45.0)
           (-30.0 30.0)
           (-30.0 30.0)
  end
  begin
     id 15 
     name upperneck
     direction 0.0113135 0.99728 -0.0728357   
     length 1.79098   
     axis 0 0 0   XYZ
    dof rx ry rz
    limits (-20.0 45.0)
           (-30.0 30.0)
           (-30.0 30.0)
  end
  begin
     id 16
     name head
     direction 0.00559662 0.999607 -0.0274604  
     length 1.88003  
     axis 0 0 0   XYZ
    dof rx ry rz
    limits (-20.0 45.0)
           (-30.0 30.0)
           (-30.0 30.0)
  end
  begin
     id 17 
     name lclavicle
     direction 0.931914 0.362632 -0.00585704  
     length 3.94155  
     axis 0 0 0   XYZ
    dof ry rz
    limits (-20.0 10.0)
           (0.0 20.0)
  end
  begin
     id 18 
     name lhumerus
     direction 1 -4.48969e-011 2.13403e-027   
     length 5.77473   
     axis 180 -30 -90   XYZ
    dof rx ry rz
    limits (-60.0 90.0)
           (-90.0 90.0)
           (-90.0 90.0)
  end
  begin
     id 19
     name lradius
     direction 1 -4.48969e-011 5.41017e-027   
     length 3.53732   
     axis 180 -30 -90   XYZ
    dof rx
    limits (-10.0 170.0)
  end
  begin
     id 20
     name lwrist
     direction 1 -4.48986e-011 1.36145e-026   
     length 1.76866   
     axis -8.75986e-015 90 90   XYZ
    dof ry
    limits (-180.0 0.0)
 end
  begin
     id 21 
     name lhand
     direction 1 -4.48703e-011 2.72291e-026   
     length 0.556229   
     axis -1.73745e-014 90 90   XYZ
    dof rx rz
    limits (-90.0 90.0)
           (-45.0 45.0)
  end
  begin
     id 22 
     name lfingers
     direction 1 -4.49204e-011 5.44582e-026   
     length 0.448446   
     axis -3.4749e-014 90 90   XYZ
    dof rx
    limits (0.0 90.0)
  end
  begin
     id 23
     name lthumb
     direction 0.707107 -6.34773e-011 0.707107   
     length 0.643881   
     axis -90 45 2.85299e-015   XYZ
    dof rx rz
    limits (-45.0 45.0)
           (-45.0 45.0)
  end
  begin
     id 24 
     name rclavicle
     direction -0.951782 0.300043 0.0639076   
     length 3.96398  
     axis 0 0 0   XYZ 
    dof ry rz
    limits (-10.0 20.0)
           (-20.0 0.0)
  end
  begin
     id 25 
     name rhumerus
     direction -1 -4.48967e-011 6.14867e-028  
     length 5.79581   
     axis 180 30 90   XYZ
    dof rx ry rz
    limits (-90.0 60.0)
           (-90.0 90.0)
           (-90.0 90.0)
  end
  begin
     id 26 
     name rradius
     direction -1 -4.48966e-011 9.26908e-027   
     length 3.37412   
     axis 180 30 90   XYZ
    dof rx
    limits (-10.0 170.0)
  end
  begin
     id 27 
     name rwrist
     direction -1 -4.48999e-011 1.36145e-026   
     length 1.68706   
     axis -8.75986e-015 -90 -90   XYZ
    dof ry
    limits (-180.0 0.0)
  end
  begin
     id 28
     name rhand
     direction -1 -4.49032e-011 2.72291e-026   
     length 0.680496   
     axis -1.73745e-014 -90 -90   XYZ
    dof rx rz
    limits (-90.0 90.0)
           (-45.0 45.0)
  end
  begin
     id 29
     name rfingers
     direction -1 -4.48876e-011 5.44582e-026   
     length 0.548633   
     axis -3.4749e-014 -90 -90   XYZ
    dof rx
    limits (0.0 90.0)
  end
  begin
     id 30
     name rthumb
     direction -0.707107 -6.34964e-011 0.707107   
     length 0.787731   
     axis -90 -45 -2.85299e-015   XYZ
    dof rx rz
    limits (-45.0 45.0)
           (-45.0 45.0)
  end
:hierarchy
  begin
    root lhipjoint rhipjoint lowerback
    lhipjoint lfemur
    lfemur ltibia
    ltibia lfoot
    lfoot ltoes
    rhipjoint rfemur
    rfemur rtibia
    rtibia rfoot
    rfoot rtoes
    lowerback upperback
    upperback thorax
    thorax lowerneck lclavicle rclavicle
    lowerneck upperneck
    upperneck head
    lclavicle lhumerus
    lhumerus lradius
    lradius lwrist
    lwrist lhand lthumb
    lhand lfingers
    rclavicle rhumerus
    rhumerus rradius
    rradius rwrist
    rwrist rhand rthumb
    rhand rfingers
  end

#!OML:ASF H:\Terrain\Patient Classification 1\PaulMetrics\March1\PaulMetrics.ASF
:FULLY-SPECIFIED
:DEGREES
111
root 22.0196 18.0467 -6.54639 14.271 -19.0046 1.05508
lowerback -6.33674 0.901057 -4.53414
upperback -5.53216 1.36137 -0.0576332
thorax -2.27892 0.813464 2.5377
lowerneck -7.11072 4.68952 1.19917
upperneck 10.9903 6.4457 -2.24048
head 4.57176 3.08426 -0.49167
rclavicle -4.86362e-014 -7.55382e-015
rhumerus -48.819 21.5132 -90.6431
rradius 61.9284
rwrist -11.6099
rhand -14.503 -34.0948
rfingers 7.12502
rthumb 11.6441 -63.7512
lclavicle -4.86362e-014 -7.55382e-015
lhumerus -57.0037 -6.75986 81.9556
lradius 30.3571
lwrist 2.5211
lhand -23.8731 -12.6934
lfingers 7.12502
lthumb 2.59991 17.2705
rfemur -0.250672 4.43973 24.9339
rtibia 19.8748
rfoot -14.274 -12.4325
rtoes -37.6508
lfemur -43.7068 -0.978935 -20.5865
ltibia 22.2962
lfoot -5.03161 10.2521
ltoes -17.2982
112
root 21.9881 18.0368 -6.35145 13.9551 -18.7919 1.39646
lowerback -6.21018 0.792454 -4.70745
upperback -5.46884 1.21776 -0.184051
thorax -2.27394 0.743442 2.49694
lowerneck -7.16728 4.75539 0.746916
upperneck 11.2279 6.51558 -1.59903
head 4.61867 3.13501 -0.215349
rclavicle 2.33417e-014 9.0447e-015
rhumerus -48.9793 21.2987 -90.8095
rradius 61.226
rwrist -11.7091
rhand -14.5342 -33.3588
rfingers 7.12502
rthumb 11.6139 -63.017
lclavicle 2.33417e-014 9.0447e-015
lhumerus -56.4355 -6.68114 81.7126
lradius 30.3915
lwrist 1.07875
lhand -23.2138 -10.6823
lfingers 7.12502
lthumb 3.23666 19.2729
rfemur -0.265779 3.86631 24.4856
rtibia 21.4686
rfoot -13.8977 -11.9247
rtoes -36.9951
lfemur -43.7092 -1.35512 -20.8814
ltibia 23.6713
lfoot -5.05596 9.93327
ltoes -15.9307
113
root 21.9485 18.0319 -6.15578 13.469 -18.6692 1.80602
lowerback -5.94338 0.749469 -5.05945
upperback -5.40802 1.15965 -0.331392
thorax -2.3612 0.723698 2.53534
lowerneck -7.08619 4.72076 0.364213
upperneck 11.5218 6.44817 -1.01408
head 4.66222 3.11853 0.0215692
rclavicle -1.82571e-014 -6.55989e-015
rhumerus -49.2093 20.8282 -90.9504
rradius 60.3465
rwrist -11.6367
rhand -14.6306 -32.8634
rfingers 7.12502
rthumb 11.521 -62.5268
lclavicle -1.82571e-014 -6.55989e-015
lhumerus -55.9746 -6.95272 81.8063
lradius 30.2074
lwrist 0.93176
lhand -23.3168 -10.7655
lfingers 7.12502
lthumb 3.13715 19.1912
rfemur -0.339391 3.42898 24.0186
rtibia 23.4731
rfoot -13.7142 -11.5776
rtoes -34.7319
lfemur -43.4144 -1.51316 -21.3295
ltibia 24.7757
lfoot -4.55474 9.26071
ltoes -13.605
114
root 21.9053 18.0327 -5.95902 13.2283 -18.6955 2.00409
lowerback -5.84058 0.706188 -5.41666
upperback -5.46265 1.10682 -0.319417
thorax -2.48223 0.712687 2.74338
lowerneck -6.74691 4.64421 0.410263
upperneck 11.5456 6.35006 -1.10094
head 4.61639 3.06894 -0.026818
rclavicle -2.32881e-014 1.39149e-015
rhumerus -49.5851 20.5652 -91.0792
rradius 59.4605
rwrist -11.6349
rhand -14.6484 -33.1146
rfingers 7.12502
rthumb 11.5038 -62.779
lclavicle -2.32881e-014 1.39149e-015
lhumerus -55.8384 -7.01321 81.8859
lradius 30.3508
lwrist 0.822913
lhand -23.2049 -10.7321
lfingers 7.12502
lthumb 3.24527 19.2229
rfemur -0.756289 2.80818 23.6736
rtibia 25.627
rfoot -12.6231 -11.3896
rtoes -34.5296
lfemur -43.2274 -1.32516 -21.7477
ltibia 25.7898
lfoot -3.30797 8.12772
ltoes -12.8338
115
root 21.8661 18.0375 -5.75992 13.0532 -18.7199 2.11841
lowerback -5.76061 0.588427 -5.76445
upperback -5.53049 0.95596 -0.198481
thorax -2.5969 0.655095 3.0567
lowerneck -6.61989 4.6774 0.847841
upperneck 11.7616 6.42661 -1.72071
head 4.69728 3.08664 -0.280664
rclavicle -2.70435e-014 1.85367e-014
rhumerus -49.991 20.6497 -91.2753
rradius 58.5599
rwrist -11.7277
rhand -14.431 -33.6897
rfingers 7.12502
rthumb 11.7135 -63.3423
lclavicle -2.70435e-014 1.85367e-014
lhumerus -55.7845 -6.74048 81.8687
lradius 30.7592
lwrist 0.568222
lhand -22.834 -9.88565
lfingers 7.12502
lthumb 3.60341 20.0636
rfemur -1.37076 1.97609 23.3291
rtibia 27.9053
rfoot -10.7119 -11.0507
rtoes -34.5463
lfemur -43.0563 -1.19413 -22.0745
ltibia 26.827
lfoot -2.78445 7.18225
ltoes -10.7188
116
root 21.8334 18.0474 -5.55729 12.8005 -18.6389 2.33255
lowerback -5.6815 0.478661 -5.95278
upperback -5.55516 0.809242 -0.217377
thorax -2.65737 0.589528 3.13686
lowerneck -6.51147 4.71077 1.11793
upperneck 12.0829 6.48968 -2.04064
head 4.79849 3.10724 -0.415704
rclavicle -1.63609e-014 7.85199e-015
rhumerus -50.2827 20.4881 -91.5026
rradius 57.4854
rwrist -11.6346
rhand -14.6267 -34.0584
rfingers 7.12502
rthumb 11.5248 -63.7216
lclavicle -1.63609e-014 7.85199e-015
lhumerus -55.5394 -6.80866 81.9712
lradius 31.0781
lwrist 0.815129
lhand -22.5687 -9.37334
lfingers 7.12502
lthumb 3.85957 20.5715
rfemur -1.99015 1.07327 22.8408
rtibia 30.3341
rfoot -8.92379 -10.3403
rtoes -31.229
lfemur -42.7729 -1.19851 -22.5068
ltibia 27.8635
lfoot -3.30162 6.91084
ltoes -9.16482
